PathFileType	4	(X/Y/Z)	F:\MotionCapture\20160217\3\Generated_files\2_Test05-Dynamic.trc
DataRate	CameraRate	NumFrames	NumMarkers	Units	OrigDataRate	OrigDataStartFrame	OrigNumFrames
120.00	120.00	       5	39	mm	120.00	1	       704
Frame#	Time	Top.Head			Front.Head			Rear.Head			R.Shoulder			R.Offset			R.Elbow			R.Wrist			L.Shoulder			L.Elbow			L.Wrist			R.ASIS			L.ASIS			V.Sacral			R.Thigh			R.Knee			R.Shank			R.Ankle			R.Heel			R.Toe			L.Thigh			L.Knee			L.Shank			L.Ankle			L.Heel			L.Toe			R1			R2			R3			R4			R5			R6			R7			L1			L2			L3			L4			L5			L6			L7			V_Mid_ASIS			V_Pelvis_Origin			V_R.Hip_JC			V_L.Hip_JC			V_R.Knee_JC			V_L.Knee_JC			V_R.Ankle_JC			V_L.Ankle_JC			V_Mid_Hip			V_Mid_Shoulder			V_R.Hand			V_L.Hand			V_R.Toe_Offset_Static			V_L.Toe_Offset_Static			V_R.Toe_Offset			V_L.Toe_Offset			
		X1	Y1	Z1	X2	Y2	Z2	X3	Y3	Z3	X4	Y4	Z4	X5	Y5	Z5	X6	Y6	Z6	X7	Y7	Z7	X8	Y8	Z8	X9	Y9	Z9	X10	Y10	Z10	X11	Y11	Z11	X12	Y12	Z12	X13	Y13	Z13	X14	Y14	Z14	X15	Y15	Z15	X16	Y16	Z16	X17	Y17	Z17	X18	Y18	Z18	X19	Y19	Z19	X20	Y20	Z20	X21	Y21	Z21	X22	Y22	Z22	X23	Y23	Z23	X24	Y24	Z24	X25	Y25	Z25	X26	Y26	Z26	X27	Y27	Z27	X28	Y28	Z28	X29	Y29	Z29	X30	Y30	Z30	X31	Y31	Z31	X32	Y32	Z32	X33	Y33	Z33	X34	Y34	Z34	X35	Y35	Z35	X36	Y36	Z36	X37	Y37	Z37	X38	Y38	Z38	X39	Y39	Z39	

1	0.000	2453.31348	180.55495	1745.80322	2327.77759	179.12172	1684.89551	2546.91919	174.74298	1657.21155	2460.28345	374.24139	1431.60559	2561.78027	102.11007	1274.66882	2488.10693	482.37405	1111.58154	2379.56592	451.86588	871.73700	2426.31177	-34.93177	1439.28015	2436.58301	-143.14438	1120.85120	2344.89819	-125.05422	878.72278	2349.90161	324.73340	966.30573	2329.28027	36.73653	967.62396	2563.81250	162.83649	951.40387	2322.23218	286.10263	582.69489	2403.76831	333.88370	472.70123	2411.42554	261.42914	239.55589	2480.45020	335.29688	76.61313	2542.34399	271.07922	50.58358	2334.13794	323.35223	46.41130	2297.99463	76.40839	632.53375	2392.12866	18.55961	475.55664	2386.50562	89.11062	332.44513	2464.63794	16.21917	71.23534	2528.60327	73.47208	51.48792	2322.59790	24.44314	46.64994	2285.36499	305.96497	43.93330	2326.41089	286.33929	52.56448	2422.96948	246.84418	60.19307	2499.21094	242.44420	49.79930	2514.65894	315.92419	51.69198	2439.77979	344.53717	42.96729	2373.74634	365.99655	41.51201	2275.48853	49.56277	41.12004	2313.02686	63.06905	50.69015	2406.36694	104.47093	54.20778	2492.94312	105.43459	50.09661	2502.78296	32.86662	51.83908	2428.42114	3.41199	39.47621	2366.28369	-9.08692	44.28244																																																	2960.85962	241.28018	-135.65579	3244.70288	131.98387	-149.17328	
2	0.008	2453.03296	180.04735	1745.74963	2327.65601	178.73564	1684.84497	2546.91797	174.58156	1657.23804	2460.27588	373.84048	1431.67297	2561.91382	101.96320	1274.66589	2487.88159	482.38440	1111.79639	2378.30713	453.12213	871.92407	2426.48389	-35.11276	1439.28125	2436.43555	-143.19373	1120.62451	2344.06348	-124.12395	878.48010	2349.93604	324.45175	966.36279	2330.99951	36.85157	967.08826	2563.96948	162.73351	951.34271	2322.20898	286.08862	582.76129	2403.79346	333.75885	472.74213	2411.43506	261.39941	239.62256	2480.41992	335.23584	76.58244	2542.36548	271.05478	50.55449	2334.09692	323.44067	46.41102	2297.86475	76.17445	632.65814	2392.31055	18.28814	475.69098	2386.54639	89.12217	332.45685	2464.68506	16.13985	71.31184	2528.61182	73.48185	51.45763	2322.57959	24.45278	46.66165	2285.35010	305.95544	43.95097	2326.44531	286.36246	52.58315	2422.92969	246.83211	60.18865	2499.21802	242.46259	49.80236	2514.65039	315.90170	51.67970	2439.72583	344.42084	42.90025	2373.78369	366.03448	41.56626	2275.50024	49.39129	41.18318	2313.00806	63.05194	50.86690	2406.58618	104.47456	54.25159	2492.98706	105.44791	50.18707	2502.75708	32.74919	51.99408	2428.43188	3.41277	39.50904	2366.31421	-9.10342	44.33042																																																	2960.58862	241.27989	-135.55368	3245.59106	131.82730	-149.34810	
3	0.017	2452.94092	179.77325	1745.74609	2327.68799	178.45674	1684.73840	2546.95337	174.30852	1657.27795	2460.20337	373.56757	1431.73413	2562.11597	101.77730	1274.65808	2487.44702	482.46414	1112.05408	2377.13574	453.87918	872.51965	2426.64795	-35.17125	1439.13147	2436.44312	-143.21779	1120.58008	2343.08203	-123.19743	878.51678	2349.99609	324.26523	966.34491	2331.10352	36.71323	967.12036	2564.10278	162.59560	951.36261	2322.67993	285.76996	582.58044	2403.92993	333.68192	472.72607	2411.62402	261.56403	239.64522	2480.39063	335.26279	76.48103	2542.37744	271.10321	50.55880	2334.09106	323.45667	46.43120	2297.92456	75.89456	632.81854	2392.24365	18.23349	475.67120	2386.90967	88.94017	332.44135	2464.67896	16.18332	71.23502	2528.61450	73.51095	51.47159	2322.61011	24.45038	46.69395	2285.39331	305.92816	43.99062	2326.41016	286.36102	52.53032	2423.00708	246.84943	60.23702	2499.28955	242.46494	49.95906	2514.70825	315.93530	51.69275	2439.83911	344.50272	43.06016	2373.71167	365.98660	41.57958	2275.50635	49.41247	41.14859	2312.97876	63.05511	50.81141	2406.56592	104.60989	54.17712	2492.95361	105.42863	50.16697	2502.78125	32.88569	51.79035	2428.45752	3.41969	39.54493	2366.30225	-9.10445	44.29553																																																	2960.76733	241.31729	-135.57275	3245.55103	131.82747	-149.25789	
4	0.025	2452.95337	179.39824	1745.76404	2327.63159	178.33424	1684.71582	2546.90112	174.00964	1657.36719	2460.08130	373.38831	1431.80225	2562.35742	101.69860	1274.61902	2487.13867	482.56680	1112.22253	2376.52734	454.32562	872.81134	2426.86401	-35.24046	1438.99219	2436.23560	-142.92888	1120.33740	2342.31958	-122.75959	878.52173	2350.14917	324.07239	966.33569	2331.19019	36.56188	967.13055	2564.23022	162.48695	951.39526	2322.67651	285.95114	582.65790	2404.04663	333.67517	472.82819	2411.58521	261.43515	239.70802	2480.45190	335.29358	76.58810	2542.33179	271.09128	50.54429	2334.14868	323.43793	46.47922	2297.96484	75.43044	632.74628	2392.49878	18.06533	475.79657	2387.00269	88.97874	332.44638	2464.65796	16.25518	71.21749	2528.59790	73.52161	51.47635	2322.59766	24.42239	46.67111	2285.37891	305.97073	43.97636	2326.44775	286.39001	52.60225	2423.00049	246.85938	60.22351	2499.30908	242.42886	49.93772	2514.68530	315.92538	51.64329	2439.84424	344.56882	43.00986	2373.80615	366.08926	41.65492	2275.50928	49.40706	41.18794	2313.01636	63.02256	50.88522	2406.55347	104.43560	54.24402	2492.99878	105.47247	50.19514	2502.75171	32.72855	52.02999	2428.49341	3.42207	39.57333	2366.33081	-9.13618	44.35333																																																	2960.72485	241.33423	-135.56120	3246.31445	131.76193	-149.34279	
5	0.033	2452.98022	179.10634	1745.85840	2327.59717	178.13632	1684.64551	2546.82861	173.65482	1657.44995	2459.82031	372.92697	1431.77039	2562.57251	101.61325	1274.57251	2486.65820	482.61026	1112.22266	2375.43506	454.87524	872.93542	2427.00122	-35.43160	1438.84229	2435.98145	-142.29974	1120.07178	2341.93335	-122.57120	878.58368	2350.20142	323.85715	966.31805	2331.20239	36.23563	967.14032	2564.34497	162.37190	951.42175	2322.86182	285.83163	582.75330	2404.12402	333.47272	472.95322	2411.72607	261.52405	239.67805	2480.40649	335.31213	76.57712	2542.36426	271.07803	50.56197	2334.23389	323.51804	46.59190	2298.02271	75.21432	632.84766	2392.58569	17.84277	475.86298	2386.73047	88.90061	332.64297	2464.73340	16.16784	71.32762	2528.62964	73.49534	51.47208	2322.61694	24.44279	46.65735	2285.42261	305.91351	43.98107	2326.45044	286.42957	52.64091	2423.03027	246.81989	60.24170	2499.22925	242.52924	49.82802	2514.71777	315.96289	51.69619	2439.85571	344.59241	42.97150	2373.81445	366.08994	41.59825	2275.52808	49.40395	41.17945	2312.99780	63.09717	50.88073	2406.56226	104.42388	54.30462	2493.00391	105.48624	50.23132	2502.81763	32.84674	51.83430	2428.18433	4.83526	39.81590	2366.21606	-8.81075	44.43128																																																	2960.58472	241.35542	-135.42909	3244.51685	132.02368	-148.91478	
